# xmcd
#
# Track frame offsets: 
#        150
#        17464
#        33969
#        52050
#        68022
#        88013
#        108681
#        123337
#        143832
#        161100
#        183638
#        203236
#
# Disc length: 2911 seconds
#
# Revision: 0
# Processed by: cddbd v1.5.2PL0 Copyright (c) Steve Scherf et al.
# Submitted via: ExactAudioCopy v1.3
#
DISCID=a80b5d0c
DTITLE=Karen Lovely - Fish Outta Water
DYEAR=2017
DGENRE=Blues
TTITLE0=Fish Outta Water
TTITLE1=Under The Midnight Sun
TTITLE2=Twist My Fate
TTITLE3=Waking Up The Dead
TTITLE4=Big Black Cadillac
TTITLE5=Everything Means Nothing
TTITLE6=Hades' Bride (There Was A Time)
TTITLE7=Molotov Cocktails
TTITLE8=Next Time
TTITLE9=Nice And Easy
TTITLE10=Punk Rock Johnny Cash
TTITLE11=The River's Wide
EXTD=
EXTT0=
EXTT1=
EXTT2=
EXTT3=
EXTT4=
EXTT5=
EXTT6=
EXTT7=
EXTT8=
EXTT9=
EXTT10=
EXTT11=
PLAYORDER=
